# xmcd
#
# Track frame offsets: 
#        183
#        16295
#        28770
#        41070
#        55683
#        73245
#        86720
#        98120
#        112070
#        126183
#        137808
#        148520
#        160458
#        174258
#        185758
#        196433
#
# Disc length: 2760 seconds
#
# Revision: 1
# Processed by: cddbd v1.5.2PL0 Copyright (c) Steve Scherf et al.
# Submitted via: ExactAudioCopy v1.3
#
DISCID=ec0ac610
DTITLE=Dave Dee, Dozy, Beaky, Mick and Tich - The Legend Of Dave Dee, Do
DTITLE=zy, Beaky, Mick and Tich
DYEAR=1988
DGENRE=Beat
TTITLE0=The Legend Of Xanadu
TTITLE1=Hold Tight
TTITLE2=You Make It Move
TTITLE3=Last Night In Soho
TTITLE4=Zabadak!
TTITLE5=Save Me
TTITLE6=Bend It
TTITLE7=Don Juan
TTITLE8=Wreck Of Antionette
TTITLE9=Touch Me Touch Me
TTITLE10=Hideaway
TTITLE11=Okay!
TTITLE12=Snake In The Grass
TTITLE13=All I Want To Do
TTITLE14=Master Llewellyn
TTITLE15=Marina
EXTD=
EXTT0=
EXTT1=
EXTT2=
EXTT3=
EXTT4=
EXTT5=
EXTT6=
EXTT7=
EXTT8=
EXTT9=
EXTT10=
EXTT11=
EXTT12=
EXTT13=
EXTT14=
EXTT15=
PLAYORDER=
